{
    "asset" : {
        "generator" : "Khronos glTF Blender I/O v1.6.16",
        "version" : "2.0"
    },
    "scene" : 0,
    "scenes" : [
        {
            "name" : "Scene",
            "nodes" : [
                0
            ]
        }
    ],
    "nodes" : [
        {
            "mesh" : 0,
            "name" : "mitsuba-sphere",
            "rotation" : [
                0.7071068286895752,
                0,
                0,
                0.7071068286895752
            ]
        }
    ],
    "materials" : [
        {
            "doubleSided" : true,
            "name" : "inside.001",
            "pbrMetallicRoughness" : {
                "baseColorFactor" : [
                    0.800000011920929,
                    0.800000011920929,
                    0.800000011920929,
                    1
                ],
                "metallicFactor" : 0,
                "roughnessFactor" : 0.5
            }
        },
        {
            "doubleSided" : true,
            "name" : "case.001",
            "pbrMetallicRoughness" : {
                "baseColorFactor" : [
                    0.800000011920929,
                    0.800000011920929,
                    0.800000011920929,
                    1
                ],
                "metallicFactor" : 0,
                "roughnessFactor" : 0.5
            }
        }
    ],
    "meshes" : [
        {
            "name" : "mitsuba-sphere.001",
            "primitives" : [
                {
                    "attributes" : {
                        "POSITION" : 0,
                        "NORMAL" : 1,
                        "TANGENT" : 2,
                        "TEXCOORD_0" : 3
                    },
                    "indices" : 4,
                    "material" : 0
                },
                {
                    "attributes" : {
                        "POSITION" : 5,
                        "NORMAL" : 6,
                        "TANGENT" : 7,
                        "TEXCOORD_0" : 8
                    },
                    "indices" : 9,
                    "material" : 1
                }
            ]
        }
    ],
    "accessors" : [
        {
            "bufferView" : 0,
            "componentType" : 5126,
            "count" : 2859,
            "max" : [
                1.1527999639511108,
                1.1619999408721924,
                0.03869999945163727
            ],
            "min" : [
                -1.1527999639511108,
                -1.1438000202178955,
                -2.0973000526428223
            ],
            "type" : "VEC3"
        },
        {
            "bufferView" : 1,
            "componentType" : 5126,
            "count" : 2859,
            "type" : "VEC3"
        },
        {
            "bufferView" : 2,
            "componentType" : 5126,
            "count" : 2859,
            "type" : "VEC4"
        },
        {
            "bufferView" : 3,
            "componentType" : 5126,
            "count" : 2859,
            "type" : "VEC2"
        },
        {
            "bufferView" : 4,
            "componentType" : 5123,
            "count" : 11808,
            "type" : "SCALAR"
        },
        {
            "bufferView" : 5,
            "componentType" : 5126,
            "count" : 30678,
            "max" : [
                1.2199000120162964,
                1.1426000595092773,
                0.01940000057220459
            ],
            "min" : [
                -1.2199000120162964,
                -1.080299973487854,
                -2.170300006866455
            ],
            "type" : "VEC3"
        },
        {
            "bufferView" : 6,
            "componentType" : 5126,
            "count" : 30678,
            "type" : "VEC3"
        },
        {
            "bufferView" : 7,
            "componentType" : 5126,
            "count" : 30678,
            "type" : "VEC4"
        },
        {
            "bufferView" : 8,
            "componentType" : 5126,
            "count" : 30678,
            "type" : "VEC2"
        },
        {
            "bufferView" : 9,
            "componentType" : 5123,
            "count" : 171456,
            "type" : "SCALAR"
        }
    ],
    "bufferViews" : [
        {
            "buffer" : 0,
            "byteLength" : 34308,
            "byteOffset" : 0
        },
        {
            "buffer" : 0,
            "byteLength" : 34308,
            "byteOffset" : 34308
        },
        {
            "buffer" : 0,
            "byteLength" : 45744,
            "byteOffset" : 68616
        },
        {
            "buffer" : 0,
            "byteLength" : 22872,
            "byteOffset" : 114360
        },
        {
            "buffer" : 0,
            "byteLength" : 23616,
            "byteOffset" : 137232
        },
        {
            "buffer" : 0,
            "byteLength" : 368136,
            "byteOffset" : 160848
        },
        {
            "buffer" : 0,
            "byteLength" : 368136,
            "byteOffset" : 528984
        },
        {
            "buffer" : 0,
            "byteLength" : 490848,
            "byteOffset" : 897120
        },
        {
            "buffer" : 0,
            "byteLength" : 245424,
            "byteOffset" : 1387968
        },
        {
            "buffer" : 0,
            "byteLength" : 342912,
            "byteOffset" : 1633392
        }
    ],
    "buffers" : [
        {
            "byteLength" : 1976304,
            "uri" : "data:application/octet-stream;base64,"
        }
    ]
}
