{
    "asset" : {
        "generator" : "Khronos glTF Blender I/O v1.6.16",
        "version" : "2.0"
    },
    "scene" : 0,
    "scenes" : [
        {
            "name" : "Scene",
            "nodes" : [
                0
            ]
        }
    ],
    "nodes" : [
        {
            "mesh" : 0,
            "name" : "Body_MC003_Kozakura_Mari_face",
            "rotation" : [
                0.7071068286895752,
                0,
                0,
                0.7071067094802856
            ]
        }
    ],
    "meshes" : [
        {
            "name" : "Body_MC003_Kozakura_Mari_face",
            "primitives" : [
                {
                    "attributes" : {
                        "POSITION" : 0,
                        "NORMAL" : 1,
                        "TANGENT" : 2,
                        "TEXCOORD_0" : 3
                    },
                    "indices" : 4
                },
                {
                    "attributes" : {
                        "POSITION" : 5,
                        "NORMAL" : 6,
                        "TANGENT" : 7,
                        "TEXCOORD_0" : 8
                    },
                    "indices" : 9
                }
            ]
        }
    ],
    "accessors" : [
        {
            "bufferView" : 0,
            "componentType" : 5126,
            "count" : 7145,
            "max" : [
                0.9433760046958923,
                0.7083500027656555,
                -0.0011940000113099813
            ],
            "min" : [
                -0.9436240196228027,
                -1.1618870496749878,
                -3.4071850776672363
            ],
            "type" : "VEC3"
        },
        {
            "bufferView" : 1,
            "componentType" : 5126,
            "count" : 7145,
            "type" : "VEC3"
        },
        {
            "bufferView" : 2,
            "componentType" : 5126,
            "count" : 7145,
            "type" : "VEC4"
        },
        {
            "bufferView" : 3,
            "componentType" : 5126,
            "count" : 7145,
            "type" : "VEC2"
        },
        {
            "bufferView" : 4,
            "componentType" : 5123,
            "count" : 29712,
            "type" : "SCALAR"
        },
        {
            "bufferView" : 5,
            "componentType" : 5126,
            "count" : 810,
            "max" : [
                0.14649200439453125,
                0.4377560019493103,
                -1.702010989189148
            ],
            "min" : [
                -0.1582069993019104,
                0.30840998888015747,
                -1.8854509592056274
            ],
            "type" : "VEC3"
        },
        {
            "bufferView" : 6,
            "componentType" : 5126,
            "count" : 810,
            "type" : "VEC3"
        },
        {
            "bufferView" : 7,
            "componentType" : 5126,
            "count" : 810,
            "type" : "VEC4"
        },
        {
            "bufferView" : 8,
            "componentType" : 5126,
            "count" : 810,
            "type" : "VEC2"
        },
        {
            "bufferView" : 9,
            "componentType" : 5123,
            "count" : 810,
            "type" : "SCALAR"
        }
    ],
    "bufferViews" : [
        {
            "buffer" : 0,
            "byteLength" : 85740,
            "byteOffset" : 0
        },
        {
            "buffer" : 0,
            "byteLength" : 85740,
            "byteOffset" : 85740
        },
        {
            "buffer" : 0,
            "byteLength" : 114320,
            "byteOffset" : 171480
        },
        {
            "buffer" : 0,
            "byteLength" : 57160,
            "byteOffset" : 285800
        },
        {
            "buffer" : 0,
            "byteLength" : 59424,
            "byteOffset" : 342960
        },
        {
            "buffer" : 0,
            "byteLength" : 9720,
            "byteOffset" : 402384
        },
        {
            "buffer" : 0,
            "byteLength" : 9720,
            "byteOffset" : 412104
        },
        {
            "buffer" : 0,
            "byteLength" : 12960,
            "byteOffset" : 421824
        },
        {
            "buffer" : 0,
            "byteLength" : 6480,
            "byteOffset" : 434784
        },
        {
            "buffer" : 0,
            "byteLength" : 1620,
            "byteOffset" : 441264
        }
    ],
    "buffers" : [
        {
            "byteLength" : 442884,
            "uri" : "data:application/octet-stream;base64,"
        }
    ]
}
